<mxfile host="65bd71144e">
    <diagram id="IrFuYK_E65wvo7RGc5Yt" name="Страница 1">
        <mxGraphModel dx="1138" dy="536" grid="1" gridSize="10" guides="1" tooltips="1" connect="1" arrows="1" fold="1" page="1" pageScale="1" pageWidth="827" pageHeight="1169" math="0" shadow="0">
            <root>
                <mxCell id="0"/>
                <mxCell id="1" parent="0"/>
                <mxCell id="ROTED8iSwZ87SqDI8fdf-40" value="" style="edgeStyle=none;html=1;" edge="1" source="ROTED8iSwZ87SqDI8fdf-41" target="ROTED8iSwZ87SqDI8fdf-43" parent="1">
                    <mxGeometry relative="1" as="geometry"/>
                </mxCell>
                <mxCell id="ROTED8iSwZ87SqDI8fdf-41" value="start" style="ellipse;whiteSpace=wrap;html=1;strokeWidth=2;fillColor=#f5f5f5;fontColor=#333333;strokeColor=#666666;" vertex="1" parent="1">
                    <mxGeometry x="250" y="40" width="120" height="60" as="geometry"/>
                </mxCell>
                <mxCell id="ROTED8iSwZ87SqDI8fdf-42" value="" style="edgeStyle=none;html=1;" edge="1" source="ROTED8iSwZ87SqDI8fdf-43" target="ROTED8iSwZ87SqDI8fdf-45" parent="1">
                    <mxGeometry relative="1" as="geometry"/>
                </mxCell>
                <mxCell id="ROTED8iSwZ87SqDI8fdf-43" value="string array" style="shape=parallelogram;perimeter=parallelogramPerimeter;whiteSpace=wrap;html=1;fixedSize=1;strokeWidth=2;fillColor=#f5f5f5;fontColor=#333333;strokeColor=#666666;" vertex="1" parent="1">
                    <mxGeometry x="245" y="140" width="130" height="50" as="geometry"/>
                </mxCell>
                <mxCell id="ROTED8iSwZ87SqDI8fdf-44" value="" style="edgeStyle=none;html=1;" edge="1" source="ROTED8iSwZ87SqDI8fdf-45" target="ROTED8iSwZ87SqDI8fdf-48" parent="1">
                    <mxGeometry relative="1" as="geometry"/>
                </mxCell>
                <mxCell id="ROTED8iSwZ87SqDI8fdf-45" value="&lt;span style=&quot;background-color: rgb(248 , 249 , 250)&quot;&gt;count = 0&lt;/span&gt;&lt;br style=&quot;background-color: rgb(248 , 249 , 250)&quot;&gt;&lt;span style=&quot;background-color: rgb(248 , 249 , 250)&quot;&gt;i = 0&lt;/span&gt;" style="whiteSpace=wrap;html=1;fillColor=#f5f5f5;strokeColor=#666666;fontColor=#333333;strokeWidth=2;" vertex="1" parent="1">
                    <mxGeometry x="260" y="220" width="100" height="50" as="geometry"/>
                </mxCell>
                <mxCell id="ROTED8iSwZ87SqDI8fdf-46" value="No" style="edgeStyle=none;html=1;" edge="1" source="ROTED8iSwZ87SqDI8fdf-48" target="ROTED8iSwZ87SqDI8fdf-51" parent="1">
                    <mxGeometry relative="1" as="geometry">
                        <Array as="points">
                            <mxPoint x="180" y="360"/>
                        </Array>
                    </mxGeometry>
                </mxCell>
                <mxCell id="ROTED8iSwZ87SqDI8fdf-47" value="Yes" style="edgeStyle=none;html=1;" edge="1" source="ROTED8iSwZ87SqDI8fdf-48" target="ROTED8iSwZ87SqDI8fdf-57" parent="1">
                    <mxGeometry relative="1" as="geometry"/>
                </mxCell>
                <mxCell id="ROTED8iSwZ87SqDI8fdf-48" value="&lt;span style=&quot;background-color: rgb(248 , 249 , 250)&quot;&gt;i &amp;gt; array.Length ?&lt;/span&gt;" style="rhombus;whiteSpace=wrap;html=1;fillColor=#f5f5f5;strokeColor=#666666;fontColor=#333333;strokeWidth=2;" vertex="1" parent="1">
                    <mxGeometry x="230" y="320" width="160" height="80" as="geometry"/>
                </mxCell>
                <mxCell id="ROTED8iSwZ87SqDI8fdf-49" value="No" style="edgeStyle=none;html=1;" edge="1" source="ROTED8iSwZ87SqDI8fdf-51" target="ROTED8iSwZ87SqDI8fdf-53" parent="1">
                    <mxGeometry relative="1" as="geometry"/>
                </mxCell>
                <mxCell id="ROTED8iSwZ87SqDI8fdf-50" value="Yes" style="edgeStyle=none;html=1;" edge="1" source="ROTED8iSwZ87SqDI8fdf-51" target="ROTED8iSwZ87SqDI8fdf-55" parent="1">
                    <mxGeometry relative="1" as="geometry"/>
                </mxCell>
                <mxCell id="ROTED8iSwZ87SqDI8fdf-51" value="&lt;span style=&quot;background-color: rgb(248 , 249 , 250)&quot;&gt;array[i].Length &amp;gt; 3?&lt;/span&gt;" style="rhombus;whiteSpace=wrap;html=1;fillColor=#f5f5f5;strokeColor=#666666;fontColor=#333333;strokeWidth=2;" vertex="1" parent="1">
                    <mxGeometry x="100" y="410" width="160" height="80" as="geometry"/>
                </mxCell>
                <mxCell id="ROTED8iSwZ87SqDI8fdf-52" value="" style="edgeStyle=none;html=1;" edge="1" source="ROTED8iSwZ87SqDI8fdf-53" target="ROTED8iSwZ87SqDI8fdf-55" parent="1">
                    <mxGeometry relative="1" as="geometry">
                        <Array as="points">
                            <mxPoint x="370" y="580"/>
                        </Array>
                    </mxGeometry>
                </mxCell>
                <mxCell id="ROTED8iSwZ87SqDI8fdf-53" value="&#10;&#10;&lt;span style=&quot;color: rgb(51, 51, 51); font-family: helvetica; font-size: 12px; font-style: normal; font-weight: 400; letter-spacing: normal; text-align: center; text-indent: 0px; text-transform: none; word-spacing: 0px; background-color: rgb(248, 249, 250); display: inline; float: none;&quot;&gt;count++&lt;/span&gt;&#10;&#10;" style="whiteSpace=wrap;html=1;fillColor=#f5f5f5;strokeColor=#666666;fontColor=#333333;strokeWidth=2;" vertex="1" parent="1">
                    <mxGeometry x="330" y="430" width="80" height="40" as="geometry"/>
                </mxCell>
                <mxCell id="ROTED8iSwZ87SqDI8fdf-54" style="edgeStyle=none;html=1;exitX=0;exitY=0.5;exitDx=0;exitDy=0;" edge="1" source="ROTED8iSwZ87SqDI8fdf-55" parent="1">
                    <mxGeometry relative="1" as="geometry">
                        <mxPoint x="310" y="290" as="targetPoint"/>
                        <Array as="points">
                            <mxPoint x="90" y="580"/>
                            <mxPoint x="90" y="290"/>
                        </Array>
                    </mxGeometry>
                </mxCell>
                <mxCell id="ROTED8iSwZ87SqDI8fdf-55" value="&#10;&#10;&lt;span style=&quot;color: rgb(51, 51, 51); font-family: helvetica; font-size: 12px; font-style: normal; font-weight: 400; letter-spacing: normal; text-align: center; text-indent: 0px; text-transform: none; word-spacing: 0px; background-color: rgb(248, 249, 250); display: inline; float: none;&quot;&gt;i++&lt;/span&gt;&#10;&#10;" style="whiteSpace=wrap;html=1;fillColor=#f5f5f5;strokeColor=#666666;fontColor=#333333;strokeWidth=2;" vertex="1" parent="1">
                    <mxGeometry x="145" y="560" width="70" height="40" as="geometry"/>
                </mxCell>
                <mxCell id="ROTED8iSwZ87SqDI8fdf-56" value="" style="edgeStyle=none;html=1;" edge="1" source="ROTED8iSwZ87SqDI8fdf-57" target="ROTED8iSwZ87SqDI8fdf-60" parent="1">
                    <mxGeometry relative="1" as="geometry"/>
                </mxCell>
                <mxCell id="ROTED8iSwZ87SqDI8fdf-57" value="&#10;&#10;&lt;span style=&quot;color: rgb(51, 51, 51); font-family: helvetica; font-size: 12px; font-style: normal; font-weight: 400; letter-spacing: normal; text-align: center; text-indent: 0px; text-transform: none; word-spacing: 0px; background-color: rgb(248, 249, 250); display: inline; float: none;&quot;&gt;string[] result = new string[count]&lt;/span&gt;&lt;br style=&quot;color: rgb(51, 51, 51); font-family: helvetica; font-size: 12px; font-style: normal; font-weight: 400; letter-spacing: normal; text-align: center; text-indent: 0px; text-transform: none; word-spacing: 0px; background-color: rgb(248, 249, 250);&quot;&gt;&lt;span style=&quot;color: rgb(51, 51, 51); font-family: helvetica; font-size: 12px; font-style: normal; font-weight: 400; letter-spacing: normal; text-align: center; text-indent: 0px; text-transform: none; word-spacing: 0px; background-color: rgb(248, 249, 250); display: inline; float: none;&quot;&gt;i = 0&lt;/span&gt;&#10;&#10;" style="whiteSpace=wrap;html=1;fillColor=#f5f5f5;strokeColor=#666666;fontColor=#333333;strokeWidth=2;" vertex="1" parent="1">
                    <mxGeometry x="570" y="330" width="120" height="60" as="geometry"/>
                </mxCell>
                <mxCell id="ROTED8iSwZ87SqDI8fdf-58" value="No" style="edgeStyle=none;html=1;" edge="1" source="ROTED8iSwZ87SqDI8fdf-60" target="ROTED8iSwZ87SqDI8fdf-63" parent="1">
                    <mxGeometry relative="1" as="geometry"/>
                </mxCell>
                <mxCell id="ROTED8iSwZ87SqDI8fdf-59" value="" style="edgeStyle=none;html=1;" edge="1" source="ROTED8iSwZ87SqDI8fdf-60" target="ROTED8iSwZ87SqDI8fdf-69" parent="1">
                    <mxGeometry relative="1" as="geometry">
                        <Array as="points">
                            <mxPoint x="420" y="470"/>
                        </Array>
                    </mxGeometry>
                </mxCell>
                <mxCell id="ROTED8iSwZ87SqDI8fdf-60" value="&#10;&#10;&lt;span style=&quot;color: rgb(51, 51, 51); font-family: helvetica; font-size: 12px; font-style: normal; font-weight: 400; letter-spacing: normal; text-align: center; text-indent: 0px; text-transform: none; word-spacing: 0px; background-color: rgb(248, 249, 250); display: inline; float: none;&quot;&gt;i &amp;gt; array.Length ?&lt;/span&gt;&#10;&#10;" style="rhombus;whiteSpace=wrap;html=1;fillColor=#f5f5f5;strokeColor=#666666;fontColor=#333333;strokeWidth=2;" vertex="1" parent="1">
                    <mxGeometry x="565" y="430" width="130" height="80" as="geometry"/>
                </mxCell>
                <mxCell id="ROTED8iSwZ87SqDI8fdf-61" value="No" style="edgeStyle=none;html=1;" edge="1" source="ROTED8iSwZ87SqDI8fdf-63" target="ROTED8iSwZ87SqDI8fdf-65" parent="1">
                    <mxGeometry relative="1" as="geometry"/>
                </mxCell>
                <mxCell id="ROTED8iSwZ87SqDI8fdf-62" value="Yes" style="edgeStyle=none;html=1;exitX=0;exitY=0.5;exitDx=0;exitDy=0;entryX=0;entryY=0.5;entryDx=0;entryDy=0;" edge="1" source="ROTED8iSwZ87SqDI8fdf-63" target="ROTED8iSwZ87SqDI8fdf-67" parent="1">
                    <mxGeometry relative="1" as="geometry">
                        <Array as="points">
                            <mxPoint x="500" y="600"/>
                            <mxPoint x="500" y="795"/>
                        </Array>
                    </mxGeometry>
                </mxCell>
                <mxCell id="ROTED8iSwZ87SqDI8fdf-63" value="&#10;&#10;&lt;span style=&quot;color: rgb(51, 51, 51); font-family: helvetica; font-size: 12px; font-style: normal; font-weight: 400; letter-spacing: normal; text-align: center; text-indent: 0px; text-transform: none; word-spacing: 0px; background-color: rgb(248, 249, 250); display: inline; float: none;&quot;&gt;array[i].Length &amp;gt; 3?&lt;/span&gt;&#10;&#10;" style="rhombus;whiteSpace=wrap;html=1;fillColor=#f5f5f5;strokeColor=#666666;fontColor=#333333;strokeWidth=2;" vertex="1" parent="1">
                    <mxGeometry x="565" y="560" width="130" height="80" as="geometry"/>
                </mxCell>
                <mxCell id="ROTED8iSwZ87SqDI8fdf-64" value="" style="edgeStyle=none;html=1;" edge="1" source="ROTED8iSwZ87SqDI8fdf-65" target="ROTED8iSwZ87SqDI8fdf-67" parent="1">
                    <mxGeometry relative="1" as="geometry"/>
                </mxCell>
                <mxCell id="ROTED8iSwZ87SqDI8fdf-65" value="&#10;&#10;&lt;span style=&quot;color: rgb(51, 51, 51); font-family: helvetica; font-size: 12px; font-style: normal; font-weight: 400; letter-spacing: normal; text-align: center; text-indent: 0px; text-transform: none; word-spacing: 0px; background-color: rgb(248, 249, 250); display: inline; float: none;&quot;&gt;result [result.Length - count ] = array[i]&lt;/span&gt;&lt;br style=&quot;color: rgb(51, 51, 51); font-family: helvetica; font-size: 12px; font-style: normal; font-weight: 400; letter-spacing: normal; text-align: center; text-indent: 0px; text-transform: none; word-spacing: 0px; background-color: rgb(248, 249, 250);&quot;&gt;&lt;span style=&quot;color: rgb(51, 51, 51); font-family: helvetica; font-size: 12px; font-style: normal; font-weight: 400; letter-spacing: normal; text-align: center; text-indent: 0px; text-transform: none; word-spacing: 0px; background-color: rgb(248, 249, 250); display: inline; float: none;&quot;&gt;count--&lt;/span&gt;&#10;&#10;" style="whiteSpace=wrap;html=1;fillColor=#f5f5f5;strokeColor=#666666;fontColor=#333333;strokeWidth=2;" vertex="1" parent="1">
                    <mxGeometry x="525" y="690" width="210" height="50" as="geometry"/>
                </mxCell>
                <mxCell id="ROTED8iSwZ87SqDI8fdf-66" style="edgeStyle=none;html=1;exitX=1;exitY=0.5;exitDx=0;exitDy=0;" edge="1" source="ROTED8iSwZ87SqDI8fdf-67" parent="1">
                    <mxGeometry relative="1" as="geometry">
                        <mxPoint x="630" y="410" as="targetPoint"/>
                        <Array as="points">
                            <mxPoint x="760" y="795"/>
                            <mxPoint x="760" y="410"/>
                        </Array>
                    </mxGeometry>
                </mxCell>
                <mxCell id="ROTED8iSwZ87SqDI8fdf-67" value="&#10;&#10;&lt;span style=&quot;color: rgb(51, 51, 51); font-family: helvetica; font-size: 12px; font-style: normal; font-weight: 400; letter-spacing: normal; text-align: center; text-indent: 0px; text-transform: none; word-spacing: 0px; background-color: rgb(248, 249, 250); display: inline; float: none;&quot;&gt;i++&lt;/span&gt;&#10;&#10;" style="whiteSpace=wrap;html=1;fillColor=#f5f5f5;strokeColor=#666666;fontColor=#333333;strokeWidth=2;" vertex="1" parent="1">
                    <mxGeometry x="600" y="780" width="60" height="30" as="geometry"/>
                </mxCell>
                <mxCell id="ROTED8iSwZ87SqDI8fdf-68" value="" style="edgeStyle=none;html=1;" edge="1" source="ROTED8iSwZ87SqDI8fdf-69" target="ROTED8iSwZ87SqDI8fdf-70" parent="1">
                    <mxGeometry relative="1" as="geometry"/>
                </mxCell>
                <mxCell id="ROTED8iSwZ87SqDI8fdf-69" value="&#10;&#10;&lt;span style=&quot;color: rgb(51, 51, 51); font-family: helvetica; font-size: 12px; font-style: normal; font-weight: 400; letter-spacing: normal; text-align: center; text-indent: 0px; text-transform: none; word-spacing: 0px; background-color: rgb(248, 249, 250); display: inline; float: none;&quot;&gt;Вывод result&lt;/span&gt;&#10;&#10;" style="shape=parallelogram;perimeter=parallelogramPerimeter;whiteSpace=wrap;html=1;fixedSize=1;fillColor=#f5f5f5;strokeColor=#666666;fontColor=#333333;strokeWidth=2;" vertex="1" parent="1">
                    <mxGeometry x="360" y="640" width="120" height="60" as="geometry"/>
                </mxCell>
                <mxCell id="ROTED8iSwZ87SqDI8fdf-70" value="End" style="ellipse;whiteSpace=wrap;html=1;fillColor=#f5f5f5;strokeColor=#666666;fontColor=#333333;strokeWidth=2;" vertex="1" parent="1">
                    <mxGeometry x="375" y="740" width="90" height="40" as="geometry"/>
                </mxCell>
            </root>
        </mxGraphModel>
    </diagram>
    <diagram id="RRpf7p1fDXfbb6T-wQ3v" name="Страница 2">
        <mxGraphModel dx="1138" dy="536" grid="1" gridSize="10" guides="1" tooltips="1" connect="1" arrows="1" fold="1" page="1" pageScale="1" pageWidth="827" pageHeight="1169" math="0" shadow="0">
            <root>
                <mxCell id="-0VUZqIh6zw3ORw3uxU5-0"/>
                <mxCell id="-0VUZqIh6zw3ORw3uxU5-1" parent="-0VUZqIh6zw3ORw3uxU5-0"/>
            </root>
        </mxGraphModel>
    </diagram>
</mxfile>